<svg xmlns="http://www.w3.org/2000/svg" width="800" height="160">
<defs>
<mask id="hide">
<rect width="800" height="600" fill="#fff"/>
<path d="M514.187 443.278c-13.67-.04-26.831.214-27.375.778-1.016 1.054-.985 69.338.031 70.399.56.584 6.713.687 28.438.519 26.124-.203 27.969-.271 31.5-1.427 8.742-2.861 12.95-7 15.562-15.306 1.583-5.03 2.079-28.102.75-34.632-2.316-11.382-7.664-17.022-18.437-19.39-2.608-.574-16.798-.902-30.469-.941zm-386.844.065c-7.977.1-8.77 1.435-17.5 18.678-1.982 3.916-4.604 8.955-5.812 11.187-1.209 2.232-2.188 4.16-2.188 4.28 0 .12-1.922 3.867-4.28 8.334-2.36 4.467-4.313 8.236-4.313 8.366 0 .13-2.032 4.117-4.532 8.853-4.89 9.263-5.47 10.562-4.906 11.511.232.389 3.16.558 7.906.454l7.5-.162 3.688-7.264 3.656-7.263h45.5l1.406 2.497c.775 1.387 2.34 4.435 3.5 6.777 1.16 2.341 2.456 4.567 2.875 4.929.492.423 3.292.594 7.844.486 5.827-.138 7.08-.346 7.219-1.102.093-.504-1.844-4.751-4.313-9.47A8585.426 8585.426 0 0 1 155 474.505c-8.238-15.932-13.972-26.335-15.313-27.821-2.38-2.64-4.602-3.34-10.625-3.34-.6 0-1.187-.006-1.719 0zm525.563 0c-4.248 0-6.673.244-7.125.713-.51.53-.685 6.639-.688 23.866-.006 24.584-.216 26.756-2.687 29.476-2.467 2.716-4.644 2.986-24.469 2.789-26.628-.265-24.475 2.485-24.875-31.94l-.281-24.612H578.468l-.156 24.612c-.104 15.804.038 26.007.438 28.438 1.11 6.76 4.81 12.527 9.625 15.11 1.626.874 7.05 2.434 10.125 2.92.943.148 11.113.229 22.593.161 20.082-.117 21.024-.176 24.875-1.491 5.026-1.716 8.077-3.976 10.438-7.718 3.484-5.522 3.714-7.696 3.969-35.15.16-17.328.035-25.085-.407-25.942-.58-1.124-1.141-1.232-7.062-1.232zm-368.813.065c-16.288 0-18.065.206-18.562.907-1.08 1.527-.938 10.882.187 12.55.884 1.308.994 1.297 16.563 1.297h15.687v28.081c0 15.448.166 28.254.375 28.471.703.73 13.079.47 13.813-.292.514-.533.687-7.695.687-28.503v-27.757h15.344c11.447 0 15.575-.186 16.313-.746.85-.646.953-1.648.812-7.264l-.156-6.517-39.438-.163c-9.146-.035-16.195-.065-21.625-.065zm-62.687.032c-9.685.027-17.266.185-18.75.421-8.263 1.315-14.065 5.878-16.719 13.166-1.309 3.595-1.396 4.693-1.625 19.423-.272 17.498.146 21.468 2.813 27.271 2.802 6.098 7.599 9.256 16.406 10.799 4.631.81 52.364.724 53.156-.098.449-.465.688-2.917.688-7.101 0-6.147-.045-6.416-1.282-6.713-.707-.17-12.35-.372-25.875-.454-28.13-.169-27.41-.049-29.656-5.09-1.152-2.588-1.224-3.676-1.219-16.117.007-14.917.324-16.494 3.844-19.1l1.875-1.393 25.563-.292c17.258-.2 25.737-.506 26.156-.94.39-.407.572-3.018.469-7.102l-.157-6.486-25.437-.162c-3.542-.022-7.022-.041-10.25-.032zm211.469 0a83.72 83.72 0 0 0-2.875.032l-6.5.162-.344 24.029c-.36 25.626-.553 27.496-3.219 30.06-2.532 2.435-4.819 2.653-24.344 2.464-18-.175-18.46-.208-20.5-1.524-4.07-2.627-4.176-3.276-4.5-30.708l-.28-24.32H356.03v26.687c0 26.209.024 26.798 1.281 30.254 3.172 8.724 7.418 12.07 17.75 13.976 1.469.27 12.083.414 23.563.324 21.62-.168 22.778-.277 28.718-2.886 3.134-1.376 7.05-5.837 8.407-9.598 2.027-5.624 2.339-10.054 2.343-34.21.006-19.38-.156-23.625-.812-24.19-.396-.341-1.875-.529-4.406-.552zM129.28 457.675c.28-.032.51.173.875.552.695.721 15.719 29.388 15.719 29.994 0 .11-7.487.227-16.625.227h-16.625l4.437-8.755a1620.976 1620.976 0 0 1 7.188-14.04c1.514-2.905 2.75-5.481 2.75-5.708 0-.227.517-.892 1.156-1.491.508-.478.845-.747 1.125-.779zm372 .195h19.437c19.009 0 19.51.024 22.063 1.33 3.542 1.81 4.954 4.613 5.75 11.251.76 6.346.283 18.337-.906 22.472-.922 3.206-2.266 4.803-5.47 6.55-1.802.984-3.901 1.097-21.28 1.298-15.854.183-19.35.109-19.594-.552-.164-.442-.24-10.175-.156-21.596l.156-20.753zm25.125 73.48c-12.944.033-26.355.346-28.906.907-7.667 1.686-12.463 5.51-15.22 12.193l-1.593 3.858v18.419c0 17.599.058 18.523 1.281 21.888 3.043 8.366 8.003 12.273 17.75 13.976 4.664.815 51.83.728 52.625-.097.719-.746.964-10.854.313-12.614-.308-.833-2.88-.935-23-.973-12.469-.024-24.028-.241-25.688-.487-5.514-.814-7.944-4.052-8.53-11.317l-.313-4.15h27.53c17.912 0 27.97-.25 28.688-.649.967-.537 1.125-1.238 1.125-5.869s-.158-5.397-1.125-5.934c-.718-.4-10.777-.616-28.687-.616h-27.531l.343-3.697c.493-4.891 1.894-7.574 4.688-9.047 2.13-1.123 3.567-1.23 26.812-1.394 16.53-.117 24.811-.38 25.313-.811.993-.855 1.047-11.787.062-12.809-.533-.553-12.994-.812-25.937-.778zm66.719.032c-13.462.009-26.375.258-26.844.745-.518.538-.656 9.156-.656 35.248 0 32.286.065 34.632 1 35.216.675.422 9.922.545 28.437.422 25.65-.171 27.711-.272 31.25-1.395 9.878-3.135 14.928-9.33 16.594-20.3.318-2.1.482-9.576.344-16.893-.225-11.835-.403-13.518-1.594-16.992-3.06-8.923-8.664-13.638-18.344-15.37-2.71-.486-16.726-.69-30.187-.681zm132.062 0c-2.718.02-5.259.296-6.594.875-2.2.954-4.532 4.071-7.875 10.571-1.216 2.366-3.454 6.694-4.968 9.631a1923.14 1923.14 0 0 0-6.032 11.868c-1.811 3.59-3.492 6.808-3.718 7.134-.227.327-2.022 3.801-4 7.718-1.978 3.916-3.775 7.391-4 7.717-1.733 2.506-7.469 14.792-7.22 15.468.426 1.15 14.76 1.24 15.626.097.31-.408 2.092-3.754 3.937-7.425l3.344-6.648h45.781l3.72 7.264 3.718 7.263 7.562.13c7.552.165 7.594.18 7.594-1.167 0-.744-.49-2.134-1.062-3.113-.573-.98-2.423-4.454-4.094-7.718-1.671-3.264-4.356-8.476-6-11.576-1.644-3.1-4.39-8.313-6.063-11.577-16.053-31.32-17.506-33.814-20.687-35.313-1.728-.814-5.474-1.226-8.969-1.2zm-668.094.032c-8.577.105-8.751 1.459-14.843 16.31-17.922 43.692-16.693 40.927-18.25 41.118-1.857.228-2.062-.062-5.22-7.88-1.449-3.59-4.538-11.215-6.874-16.927C9.569 558.325 6 549.67 4 544.774c-2.208-5.399-4.359-9.733-5.47-10.993l-1.812-2.075-9.062-.195c-11.271-.242-13.021.18-14.531 3.632-1.025 2.342-1.05 4.335-1.063 34.567-.009 24.169.14 32.247.656 32.784.443.46 2.74.713 6.47.713 3.729 0 5.993-.254 6.437-.713.514-.534.687-7.62.687-28.212 0-24.49.103-27.534.906-27.854 1.362-.543 2.014.548 6.125 10.214 2.083 4.895 5.898 13.84 8.47 19.878 2.57 6.037 5.189 12.15 5.812 13.619 4.903 11.566 7.432 13.469 17.468 12.97 5.845-.29 8.201-1.452 10.563-5.155.802-1.257 5.512-11.762 10.437-23.315 12.722-29.838 12.047-28.406 13.407-28.406 1.166 0 1.156.146 1.156 27.757 0 20.808.173 27.97.687 28.504.443.46 2.74.713 6.47.713 3.729 0 6.025-.254 6.468-.713.91-.945.968-63.125.062-66.508-1.06-3.961-2.78-4.57-13.03-4.572-1.611 0-2.994-.015-4.22 0zm137.594 0c-5.92 0-6.514.075-7.094 1.2-.442.857-.567 8.646-.406 25.974.253 27.271.493 29.35 3.875 35.053 2.767 4.667 8.312 7.87 15.625 8.982 5.215.793 48.66.678 49.438-.13.968-1.004.94-12.707-.032-13.36-.393-.263-11.304-.582-24.25-.745l-23.53-.324-2.188-1.849c-1.37-1.15-2.456-2.71-2.875-4.15-.462-1.588-.689-9.638-.72-25.78-.032-17.41-.24-23.63-.75-24.158-.452-.47-2.845-.713-7.093-.713zm257.406 0c-9.085 0-11.389.529-13 3.08-.848 1.343-8.074 18.664-15.843 37.875-1.65 4.08-3.37 8.198-3.782 9.177-.412.979-1.269 3.054-1.906 4.605-1.001 2.436-1.351 2.82-2.781 2.82-1.584 0-1.796-.36-4.969-8.17-5.08-12.505-10.033-24.583-10.875-26.559-.417-.979-2.361-5.69-4.312-10.473-2.288-5.61-4.156-9.288-5.25-10.377l-1.688-1.686-9.531-.195c-11.085-.195-13.012.38-14.219 4.054-.982 2.987-1.072 65.914-.094 66.929.444.46 2.74.713 6.47.713 3.729 0 6.025-.254 6.468-.713.514-.534.687-7.696.687-28.504 0-26.77.028-27.757 1.063-27.757 1.417 0 1.877.664 3.969 5.934.971 2.448 2.135 5.247 2.593 6.226.46.98 2.828 6.481 5.25 12.193 12.112 28.553 12.228 28.787 15.657 31 1.833 1.183 2.819 1.33 8.687 1.33 6.112 0 6.757-.123 8.719-1.492 2.332-1.629 4.491-4.91 6.781-10.377 1.401-3.345 5.788-13.703 14.594-34.405 4.111-9.666 4.763-10.757 6.125-10.214.804.32.906 3.363.906 27.854 0 20.592.174 27.678.688 28.212.443.46 2.739.713 6.468.713 3.73 0 5.995-.254 6.438-.713.517-.537.687-8.592.687-32.622 0-28.31-.098-32.195-.937-34.372-1.384-3.588-3.005-4.086-13.063-4.086zm-354.343.097-6.5.195-.157 24.936c-.176 26.05.027 29.393 2.282 34.859 2.285 5.542 8.675 9.843 16.437 11.09 1.746.28 12.583.469 24.063.39 20.193-.14 20.978-.196 25.062-1.557 5.156-1.718 9.62-5.59 11.406-9.923 2.252-5.46 2.458-8.815 2.282-34.859l-.157-24.936h-14.312l-.281 24.936c-.326 28.392-.25 27.803-5.157 30.384-2.475 1.302-2.955 1.362-20.843 1.362-17.89 0-18.431-.06-20.907-1.362-1.503-.79-3.002-2.175-3.687-3.405-1.102-1.978-1.18-3.26-1.344-26.525-.138-19.547-.292-24.537-.906-25.066-.37-.318-1.956-.495-4.469-.519-.837-.008-1.771-.027-2.812 0zm168.593 0c-15.191.016-21.482.186-21.906.552-.557.48-.781 2.268-.781 6.323 0 8.409-1.28 7.847 17.531 7.847h15.625v28.082c0 15.448.165 28.253.375 28.47.703.73 13.078.47 13.813-.291.514-.534.687-7.695.687-28.504v-27.757h15.344c11.446 0 15.575-.186 16.312-.746.851-.645.954-1.648.813-7.263l-.156-6.518-39.407-.162c-7.156-.028-13.186-.038-18.25-.033zm68.532.195-.157 34.924c-.107 25.314.032 35.18.5 35.766.473.59 2.32.811 6.813.811s6.309-.22 6.781-.81c.469-.586.607-10.453.5-35.767l-.156-34.924H334.875zm323.093 0-.156 34.924c-.107 25.314.032 35.18.5 35.766.476.596 2.341.811 7.125.811 6.262 0 6.512-.042 6.813-1.33.171-.734.243-16.837.156-35.766l-.156-34.405h-14.282zm-52.75 14.008c13.343-.038 15.62.426 18.813 2.594 3.503 2.38 4.187 5.553 4.187 19.003 0 14.422-.805 17.076-6.187 20.04-2.29 1.26-3.095 1.287-21.688 1.491-15.786.173-19.352.07-19.593-.584-.163-.439-.24-10.143-.157-21.564l.157-20.753 18.03-.194c2.393-.023 4.532-.027 6.438-.033zm121.094.13c.935.01 2.08 1.694 4.219 5.902 1.53 3.009 4.925 9.64 7.562 14.721 2.637 5.082 4.782 9.41 4.782 9.631 0 .222-7.318.422-16.282.422-8.963 0-16.312-.233-16.312-.487 0-.524 1.333-3.196 9-18.224 2.997-5.874 5.748-11.026 6.125-11.446.3-.334.595-.523.906-.52z" style="fill:#040404" transform="translate(27.938 -443.274)"/>
</mask>
</defs>
<rect width="800" height="600" fill="#f0f"/>
<g>
<image xmlns:xlink="http://www.w3.org/1999/xlink" xlink:href="pages.png"/>

</g>
<rect width="800" height="600" fill="#fff" style="mask:url(#hide)"/>
</svg>